<?xml version="1.0" encoding="UTF-8"?>
<!DOCTYPE svg PUBLIC "-//W3C//DTD SVG 1.1//EN" "http://www.w3.org/Graphics/SVG/1.1/DTD/svg11.dtd">
<svg xmlns="http://www.w3.org/2000/svg" version="1.1" width="275px" height="183px" style="shape-rendering:geometricPrecision; text-rendering:geometricPrecision; image-rendering:optimizeQuality; fill-rule:evenodd; clip-rule:evenodd" xmlns:xlink="http://www.w3.org/1999/xlink">
<g><path style="opacity:1" fill="#d42b10" d="M -0.5,-0.5 C 91.1667,-0.5 182.833,-0.5 274.5,-0.5C 274.5,8.16667 274.5,16.8333 274.5,25.5C 182.833,25.5 91.1667,25.5 -0.5,25.5C -0.5,16.8333 -0.5,8.16667 -0.5,-0.5 Z"/></g>
<g><path style="opacity:1" fill="#fefefe" d="M -0.5,25.5 C 91.1667,25.5 182.833,25.5 274.5,25.5C 274.5,69.1667 274.5,112.833 274.5,156.5C 182.833,156.5 91.1667,156.5 -0.5,156.5C -0.5,112.833 -0.5,69.1667 -0.5,25.5 Z"/></g>
<g><path style="opacity:1" fill="#edb421" d="M 161.5,53.5 C 166.918,57.5443 167.751,62.5443 164,68.5C 163.333,70.8333 163.333,73.1667 164,75.5C 164.336,71.9912 165.836,69.1579 168.5,67C 172.055,65.8775 174.055,67.2108 174.5,71C 172.794,75.3606 170.794,75.5272 168.5,71.5C 165.873,73.0839 165.873,74.7505 168.5,76.5C 166.833,77.1667 165.167,77.8333 163.5,78.5C 165.425,80.95 164.925,83.2833 162,85.5C 161.487,83.4794 160.32,81.9794 158.5,81C 161.038,78.6408 160.371,77.1408 156.5,76.5C 159.028,74.4954 158.695,72.8287 155.5,71.5C 154.281,72.2634 153.281,73.2634 152.5,74.5C 149.872,72.085 149.872,69.585 152.5,67C 153.833,66.3333 155.167,66.3333 156.5,67C 158.626,69.4331 159.959,72.2665 160.5,75.5C 160.833,74.6667 161.167,73.8333 161.5,73C 160.339,69.188 159.339,65.3547 158.5,61.5C 158.4,58.3764 159.4,55.7097 161.5,53.5 Z"/></g>
<g><path style="opacity:1" fill="#edb320" d="M 110.5,53.5 C 112.752,53.9156 114.252,55.249 115,57.5C 115.667,60.1667 115.667,62.8333 115,65.5C 112.876,68.6669 112.376,72.0003 113.5,75.5C 114.041,72.2665 115.374,69.4331 117.5,67C 121.095,65.9273 123.095,67.2606 123.5,71C 123.612,72.6624 122.946,73.8291 121.5,74.5C 120.062,71.1771 118.229,70.8438 116,73.5C 115.689,74.7425 116.189,75.7425 117.5,76.5C 113.629,77.1408 112.962,78.6408 115.5,81C 113.951,82.214 112.785,83.714 112,85.5C 109.075,83.2833 108.575,80.95 110.5,78.5C 108.833,77.8333 107.167,77.1667 105.5,76.5C 108.127,74.7505 108.127,73.0839 105.5,71.5C 103.206,75.5272 101.206,75.3606 99.5,71C 100.888,66.1523 103.555,65.3189 107.5,68.5C 108.792,70.6666 109.625,72.9999 110,75.5C 110.667,73.1667 110.667,70.8333 110,68.5C 108.767,66.1342 107.934,63.6342 107.5,61C 108.109,58.2915 109.109,55.7915 110.5,53.5 Z"/></g>
<g><path style="opacity:1" fill="#edb421" d="M 136.5,96.5 C 139.365,98.5534 140.698,101.387 140.5,105C 139.954,108.933 138.954,112.766 137.5,116.5C 137.833,117.167 138.167,117.833 138.5,118.5C 139.18,115.64 140.513,113.14 142.5,111C 146.202,109.607 148.202,110.774 148.5,114.5C 147.71,118.43 146.376,118.93 144.5,116C 143.552,115.517 142.552,115.351 141.5,115.5C 142.167,117.5 142.833,119.5 143.5,121.5C 141.712,121.215 140.045,121.548 138.5,122.5C 138.977,123.478 139.643,124.311 140.5,125C 139,125.833 137.833,127 137,128.5C 136.167,127 135,125.833 133.5,125C 134.357,124.311 135.023,123.478 135.5,122.5C 133.955,121.548 132.288,121.215 130.5,121.5C 131.167,119.5 131.833,117.5 132.5,115.5C 130.089,115.137 128.589,116.137 128,118.5C 125.73,116.685 125.064,114.352 126,111.5C 127.726,110.424 129.559,110.257 131.5,111C 133.487,113.14 134.82,115.64 135.5,118.5C 135.833,117.833 136.167,117.167 136.5,116.5C 132.691,109.685 132.691,103.018 136.5,96.5 Z"/></g>
<g><path style="opacity:1" fill="#101a4b" d="M -0.5,156.5 C 91.1667,156.5 182.833,156.5 274.5,156.5C 274.5,165.167 274.5,173.833 274.5,182.5C 182.833,182.5 91.1667,182.5 -0.5,182.5C -0.5,173.833 -0.5,165.167 -0.5,156.5 Z"/></g>
</svg>
